<?xml version="1.0" ?><svg xmlns="http://www.w3.org/2000/svg" width="24" height="24" viewBox="0 0 24 24" fill="none"><g id="letter-d"><g id="Union" filter="url(#filter0_d_1701_1093)"><path d="M12.75 3H6C5.44772 3 5 3.44772 5 4V20C5 20.5523 5.44772 21 6 21H12.75C16.7541 21 20 17.7541 20 13.75V10.25C20 6.24594 16.7541 3 12.75 3Z" fill="white"/></g><path id="icon" fill-rule="evenodd" clip-rule="evenodd" d="M7 5H12.75C15.6495 5 18 7.35051 18 10.25V13.75C18 16.6495 15.6495 19 12.75 19H7V5ZM10 8V16H12.75C13.9926 16 15 14.9926 15 13.75V10.25C15 9.00736 13.9926 8 12.75 8H10Z" fill="#1452CC"/></g><defs><filter id="filter0_d_1701_1093" x="3" y="1.5" width="19" height="22" filterUnits="userSpaceOnUse" color-interpolation-filters="sRGB"><feFlood flood-opacity="0" result="BackgroundImageFix"/><feColorMatrix in="SourceAlpha" type="matrix" values="0 0 0 0 0 0 0 0 0 0 0 0 0 0 0 0 0 0 127 0" result="hardAlpha"/><feOffset dy="0.5"/><feGaussianBlur stdDeviation="1"/><feComposite in2="hardAlpha" operator="out"/><feColorMatrix type="matrix" values="0 0 0 0 0 0 0 0 0 0 0 0 0 0 0 0 0 0 0.25 0"/><feBlend mode="normal" in2="BackgroundImageFix" result="effect1_dropShadow_1701_1093"/><feBlend mode="normal" in="SourceGraphic" in2="effect1_dropShadow_1701_1093" result="shape"/></filter></defs></svg>